<?xml version="1.0" encoding="UTF-8"?>
<svg width="100px" height="100px" version="1.1" viewBox="0 0 100 100" xmlns="http://www.w3.org/2000/svg">
 <path d="m95.398 41.898c-5.1992-9-10.301-18.102-15.699-27-3.1992-5.3008-8-8.1992-14.301-8.1992-10.301-0.10156-20.801 0-31.102 0-1.6016 0-3.1992 0.19922-4.6992 0.69922-4 1.3984-7.3008 3.6992-9.5 7.5-5.1016 8.8008-10.199 17.801-15.301 26.602-1.3984 2.3008-2.1016 4.8008-2.3008 7.5-0.19922 3.3008 0.30078 6.3984 2 9.3008 5.1992 8.8984 10.398 17.898 15.5 26.801 1.3984 2.6016 3.3984 4.5 5.8984 5.8984 2.3008 1.3984 4.8984 2.3984 7.6992 2.3984h31.801c1.5 0 3-0.19922 4.3984-0.60156 4.1992-1.3984 7.6016-3.6016 9.8008-7.6016 5.1992-8.8984 10.301-17.898 15.5-26.801 1.3984-2.3984 2.1016-5 2.1992-7.8008 0.30859-3.0938-0.29297-5.9922-1.8945-8.6953zm-55.898 21c1 1.1016 1 2.6992-0.10156 3.6992-0.5 0.5-1.1992 0.69922-1.8008 0.69922-0.69922 0-1.3984-0.30078-1.8984-0.80078l-13.898-14.699c-1-1-1-2.6016 0-3.6016l13.898-14.699c1-1.1016 2.6992-1.1016 3.6992-0.10156 1.1016 1 1.1016 2.6992 0.10156 3.6992l-12.199 12.898zm16.602-26.797-7 29.102c-0.30078 1.1992-1.3984 2-2.6016 2-0.19922 0-0.39844 0-0.60156-0.10156-1.3984-0.30078-2.3008-1.8008-1.8984-3.1992l7-29.102c0.30078-1.3984 1.8008-2.3008 3.1992-1.8984 1.4023 0.29688 2.1992 1.7969 1.9023 3.1992zm22.098 15.699-13.898 14.699c-0.5 0.60156-1.1992 0.80078-1.8984 0.80078-0.69922 0-1.3008-0.19922-1.8008-0.69922-1.1016-1-1.1016-2.6992-0.10156-3.6992l12.199-12.898-12.199-12.898c-1-1.1016-1-2.6992 0.10156-3.6992 1.1016-1 2.6992-1 3.6992 0.10156l13.898 14.699c1 0.99219 1 2.5938 0 3.5938z"/>
</svg>
