<?xml version="1.0" encoding="UTF-8"?>
<svg width="100pt" height="100pt" version="1.1" viewBox="0 0 100 100" xmlns="http://www.w3.org/2000/svg">
 <path d="m39.273 62.406c-2.3086-2.5039-3.9609-5.7383-4.5-9.1523-0.67578-1.1523-1.1719-2.6172-1.5156-4.1445-0.30469-1.3711-0.41406-2.6641-0.23437-3.8867 0.13281-0.92578 0.42969-1.7891 0.90625-2.5391-1.5117-2.25-1.9844-4.543-1.5586-7.2969 0.007812-0.058594 0.007812-0.058594 0.015625-0.11719 0.054687-0.34766 0.082031-0.55078 0.11719-0.75391 0.054688-0.32812 0.10547-0.62109 0.16797-0.91406 0.90625-4.3594 3.668-7.1797 8.8516-7.2109h0.058593c1.8242-2.6211 4.5938-4.3633 7.7188-4.1172 7.7109 0.60156 13.566 3.9062 16.734 8.3125 1.6523 2.3008 1.9727 5.3047 1.5859 8.8086-0.125 1.1328-0.33203 2.2656-0.57031 3.2305-0.11328 0.44531-0.23047 0.84766-0.34766 1.1797-0.089844 0.25391-0.18359 0.48437-0.30859 0.72656-0.019531 0.035156-0.039062 0.074219-0.058593 0.10938 0.46875 2.082-0.054688 4.5781-1.5117 7.7422-0.33594 3.9258-2.6055 7.875-5.7344 10.723 0.03125 0.10547 0.0625 0.21484 0.085937 0.32812-0.007812-0.035156 0.26172 1.2773 0.35156 1.6523 0.0625 0.24609 0.12109 0.44922 0.16797 0.59375 0.019532 0.050781 0.015626 0.042968-0.050781-0.0625 0.91797 1.4609 0.79297 3.3477-0.30859 4.6758-1.8203 2.1953-6.5547 6.6758-8.9102 7.2852-0.59375 0.15234-1.2188 0.16406-1.8164 0.039063-2.8242-0.58984-8.0547-5.8711-9.5742-8.0586-0.75781-1.0859-0.92969-2.4766-0.45703-3.7148 0.035156-0.089844 0.125-0.46484 0.21875-0.97266 0.050781-0.26562 0.10156-0.55469 0.15234-0.89062 0.03125-0.1875 0.11719-0.75 0.12109-0.78125 0.042969-0.27734 0.11328-0.54297 0.20313-0.79297zm10.176 0.88281c5.2695 0 11.414-6.3242 11.414-11.898 3.3555-6.8281 0.51172-7.0273 0.51172-7.0273-2.3516-4.2852-3.3711-5.5195-10.758-5.1445-7.3828 0.37109-7.9609-1.7305-7.9609-1.7305-3.8867 1.5117-4.6641 6.793-4.6641 6.793-2.4219 0.94141 0 7.1094 0.62891 7.4922 0.48438 5.832 5.5586 11.516 10.828 11.516zm-4.6133-26.551c1.1094 0.58203 3.1875 0.89453 6.4805 0.73047 7.0039-0.35547 8.7891 0.50781 11.473 5.2852 0.20703 0.082032 2.0781-6.9414 0-9.832-1.8008-2.5039-6.1055-6.0625-13.801-6.6602-2.7656-0.21484-5.3594 3.1992-5.6445 6.6602s1.2383 3.6836 1.4922 3.8164zm-7.5703 3.7383c0.17578-0.43359 0.37891-0.85937 0.60547-1.2734 0.875-1.582 2.043-2.8008 3.5625-3.4961-0.32031-0.78125-0.44141-1.8086-0.33203-3.1172 0.058594-0.75391 0.21484-1.4922 0.44531-2.1992-4.5742 0.027344-4.8594 3.25-5.2227 5.6055-0.27734 1.7812-0.019531 3.0625 0.94141 4.4805zm5.7578 23.336c-0.12109 0.78516-0.375 2.5859-0.70703 3.4609 0.035156 0.054687 5.2109 6.0312 7.1094 6.4297 1.5469-0.39844 6.6016-5.6875 6.8281-5.9609-0.50781-0.8125-0.80859-2.6602-0.98438-3.4414-1.8398 1.2344-3.8672 1.9883-5.8203 1.9883-2.2695 0-4.5117-0.94141-6.4258-2.4766z"/>
</svg>
