<svg height='100px' width='100px'  fill="#000000" xmlns="http://www.w3.org/2000/svg" xmlns:xlink="http://www.w3.org/1999/xlink" xml:space="preserve" style="shape-rendering:geometricPrecision;text-rendering:geometricPrecision;image-rendering:optimizeQuality;" viewBox="0 0 10.37 10.37" x="0px" y="0px" fill-rule="evenodd" clip-rule="evenodd"><defs><style type="text/css">
   
    .fil1 {fill:none}
    .fil0 {fill:#000000}
    .fil2 {fill:#000000;fill-rule:nonzero}
   
  </style></defs><g><g><path class="fil0" d="M2.65538 5.70506c-0.0382283,0.0351102 -0.0406929,0.0950866 -0.00555512,0.133268 0.0351299,0.0381811 0.0950394,0.0406496 0.133232,0.00555906 0.0394291,-0.0362165 0.119012,-0.103055 0.175394,-0.0807756 0.0121339,0.00479528 0.0223386,0.0130433 0.0310748,0.0225748 0.0419488,0.045752 0.0724213,0.119181 0.0944488,0.177047 0.0337126,0.088563 0.0604843,0.179555 0.0879134,0.270197 0.0609134,0.201315 0.125539,0.424378 0.241469,0.60139 0.084248,0.12865 0.197413,0.235094 0.35348,0.262567 0.0920551,0.0162047 0.185642,0.00268504 0.27398,-0.0254331 0.105445,-0.033563 0.206524,-0.0884134 0.298839,-0.148839 0.0434449,-0.028437 0.0557244,-0.087185 0.0273031,-0.130634 -0.0284252,-0.0434528 -0.0871969,-0.0557402 -0.130642,-0.0272992 -0.0573386,0.0375276 -0.117547,0.0722638 -0.180866,0.098689 -0.109732,0.0457992 -0.235634,0.0682087 -0.344264,0.00703543 -0.0582441,-0.0328031 -0.103642,-0.0840591 -0.139909,-0.139433 -0.0793583,-0.121177 -0.13024,-0.270075 -0.173957,-0.407543 -0.0153386,-0.0482362 -0.03,-0.096685 -0.0446654,-0.14513 -0.0475512,-0.15715 -0.112756,-0.398661 -0.224276,-0.520272 -0.0500748,-0.0545984 -0.111437,-0.0943898 -0.187492,-0.0952126 -0.106185,-0.00114173 -0.210724,0.0735394 -0.285508,0.142244z"></path><g><path class="fil0" d="M7.36376 3.38083l0.266555 0.266555c0.152921,0.152925 0.152917,0.403161 0,0.556079l-0.296299 0.296303 -0.822638 -0.822638 0.296299 -0.296299c0.152921,-0.152917 0.403157,-0.152925 0.556083,0zm-1.26242 1.12332l-0.821362 0.821362 -0.0695118 -0.0695118 0.821362 -0.821362 0.0695118 0.0695118zm0.237583 0.237583l-0.821362 0.821362 -0.0695118 -0.0695118 0.821362 -0.821362 0.0695118 0.0695118zm0.237583 0.237583l-0.821362 0.821362 -0.0695118 -0.0695118 0.821362 -0.821362 0.0695118 0.0695118zm0.687996 -0.410039l-0.249531 0.249531 -0.822634 -0.822638 0.249531 -0.249531 0.822634 0.822638zm-0.319043 0.319043l-1.40433 1.40433 -0.822638 -0.822638 1.40433 -1.40433 0.822634 0.822638z"></path><path class="fil0" d="M4.44495 6.56619l0.0919685 -0.434417 0.342449 0.342449 -0.434417 0.0919685zm0.116256 -0.549154l0.104839 -0.495201 0.82326 0.82326 -0.495201 0.104839 -0.432898 -0.432898z"></path></g></g></g><rect class="fil1" width="10.37" height="10.37"></rect><path class="fil2" d="M5.265 0.046874l2.16506 1.25 -0.00015748 0.000271654 2.1646 1.24972 0.080626 0.0465512 0 0.0915748 0 2.5 0 2.5 0 0.0915748 -0.080626 0.0465512 -2.1646 1.24972 0.00015748 0.000271654 -2.16506 1.25 -0.08 0.046185 -0.08 -0.046185 -2.16506 -1.25 0.00015748 -0.000271654 -2.1646 -1.24972 -0.080626 -0.0465512 0 -0.0915748 0 -2.5 0 -2.5 0 -0.0915748 0.080626 -0.0465512 2.1646 -1.24972 -0.00015748 -0.000271654 2.16506 -1.25 0.08 -0.046185 0.08 0.046185zm-0.0800039 0.508067l-1.58863 0.917197 0.00015748 0.000275591 -2.42165 1.39813 0 4.62891 2.42165 1.39813 -0.00015748 0.000271654 1.58864 0.917201 1.58863 -0.917197 -0.00015748 -0.000275591 2.42165 -1.39813 0 -4.62891 -2.42165 -1.39813 0.00015748 -0.000271654 -1.58864 -0.917201z"></path></svg>